<svg width="668" height="623" viewBox="0 0 668 623" fill="none" xmlns="http://www.w3.org/2000/svg">
<path d="M0 172.277L226 0V450.724L0 623V172.277Z" fill="#F0EAD2"/>
<path d="M442 172L226 0L226 450L442 622V172Z" fill="#DDE5B6"/>
<path d="M442 173L668 1V451L442 623V173Z" fill="#ADC178"/>
<path d="M249.5 274C249.5 324.258 333 440.5 333 440.5C333 440.5 419 324.258 419 274C419 223.742 383.258 183 333 183C282.742 183 249.5 223.742 249.5 274Z" fill="#A98467"/>
<path d="M280 267C280 298.48 304.177 324 334 324C363.823 324 388 298.48 388 267C388 235.52 363.823 210 334 210C304.177 210 280 235.52 280 267Z" fill="#6C584C"/>
</svg>
